<?xml version="1.0" standalone="no"?>
<!DOCTYPE svg PUBLIC "-//W3C//DTD SVG 20010904//EN"
 "http://www.w3.org/TR/2001/REC-SVG-20010904/DTD/svg10.dtd">
<svg version="1.0" xmlns="http://www.w3.org/2000/svg"
 width="512.000000pt" height="512.000000pt" viewBox="0 0 512.000000 512.000000"
 preserveAspectRatio="xMidYMid meet">
<metadata>
Created by potrace 1.14, written by Peter Selinger 2001-2017
</metadata>
<g transform="translate(0.000000,512.000000) scale(0.100000,-0.100000)"
fill="#000000" stroke="none">
<path d="M1122 3849 c-102 -13 -210 -47 -306 -97 -71 -36 -109 -64 -171 -127
-138 -139 -194 -293 -182 -505 14 -230 91 -386 268 -539 119 -103 209 -161
411 -267 337 -176 432 -246 487 -356 74 -148 15 -327 -129 -391 -62 -28 -199
-27 -291 2 -128 40 -251 142 -335 277 -47 75 -106 226 -119 302 l-7 42 -184 0
-185 0 6 -87 c18 -258 72 -576 126 -738 17 -49 34 -94 38 -98 5 -5 69 18 143
51 l134 59 130 -43 c178 -59 315 -78 502 -71 178 6 268 27 402 94 79 39 110
62 185 138 97 96 136 160 177 280 31 93 33 306 5 400 -78 253 -228 391 -687
630 -391 203 -468 275 -478 446 -11 184 81 302 246 316 129 11 261 -38 356
-131 61 -60 122 -173 161 -298 l27 -88 149 0 149 0 0 139 c0 270 -30 514 -75
616 l-23 54 -79 -24 c-220 -69 -223 -69 -257 -56 -160 65 -407 95 -594 70z"/>
<path d="M3030 3839 c-102 -5 -257 -13 -345 -17 l-160 -7 -22 -40 c-22 -42
-51 -160 -41 -170 3 -4 33 -10 66 -15 98 -14 141 -44 162 -115 8 -29 10 -281
8 -930 -3 -873 -3 -891 -23 -925 -25 -43 -77 -70 -150 -77 l-55 -6 0 -37 c0
-45 20 -105 52 -154 l23 -36 451 0 c420 0 452 1 467 18 26 28 57 108 64 160
l5 49 -57 6 c-85 9 -145 42 -172 97 -23 43 -23 51 -23 392 l0 348 124 0 124 0
43 -33 c58 -44 118 -158 170 -322 22 -71 59 -186 80 -255 76 -242 147 -349
279 -419 81 -43 171 -61 316 -61 143 0 233 22 289 71 l35 31 0 94 0 93 -42 12
c-108 28 -165 103 -235 303 -96 276 -259 492 -441 583 l-73 36 81 24 c302 87
454 277 467 583 14 331 -138 547 -462 656 -162 54 -256 66 -555 69 -146 2
-348 -1 -450 -6z m540 -270 c184 -29 290 -139 321 -332 31 -201 -23 -394 -141
-501 -85 -77 -182 -106 -352 -106 l-118 0 2 468 3 467 45 6 c75 10 172 9 240
-2z"/>
</g>
</svg>
